<svg width="7.967mm" height="8.559mm" version="1.1" viewBox="0 0 7.967 8.559" xmlns="http://www.w3.org/2000/svg">
 <g transform="translate(-92.394 -107.63)">
  <path d="m94.249 107.63c-1.0214 0-1.8557 0.75863-1.8557 1.6878v0.5855h0.53537v-0.5855c0-0.6659 0.58826-1.201 1.3203-1.201h4.2556c0.73207 0 1.3203 0.53506 1.3203 1.201v0.5855h0.53537v-0.5855c0-0.92911-0.83427-1.6878-1.8557-1.6878z" style="color-rendering:auto;color:#000000;dominant-baseline:auto;fill-opacity:.8;fill:#f5e260;font-feature-settings:normal;font-variant-alternates:normal;font-variant-caps:normal;font-variant-east-asian:normal;font-variant-ligatures:normal;font-variant-numeric:normal;font-variant-position:normal;font-variation-settings:normal;image-rendering:auto;inline-size:0;isolation:auto;mix-blend-mode:normal;opacity:.989;shape-margin:0;shape-padding:0;shape-rendering:auto;solid-color:#000000;stop-color:#000000;text-decoration-color:#000000;text-decoration-line:none;text-decoration-style:solid;text-indent:0;text-orientation:mixed;text-transform:none;white-space:normal"/>
  <path d="m94.635 109.64c-0.83113 0-1.51 0.60853-1.51 1.3538v0.46965h0.43563v-0.46965c0-0.53415 0.47867-0.96334 1.0743-0.96334h3.4627c0.59568 0 1.0743 0.42919 1.0743 0.96334v0.46965h0.43563v-0.46965c0-0.74528-0.67884-1.3538-1.51-1.3538zm0.23303 1.9148c-0.46479 4e-5 -0.88879 0.13839-1.2046 0.37258-0.31579 0.23421-0.52664 0.57413-0.52658 0.95654v1.0154c1.67e-4 0.38229 0.21133 0.72193 0.5271 0.95601 0.09736 0.0722 0.20758 0.13179 0.32349 0.18449l0.58239 1.1374h1.8144v-0.26354h-1.6526l-0.38396-0.75293c0.16554 0.04 0.33821 0.0672 0.52038 0.0672 1.003-0.0129 2.0972-4e-3 3.0334 2e-3 0.18217 2.2e-4 0.35531-0.0269 0.5209-0.0667l-0.38499 0.75241-1.6526-2e-3 -5.3e-4 0.26354 1.8144 2e-3 0.58394-1.1369c0.11598-0.0525 0.22604-0.11193 0.3235-0.18397 0.31607-0.23367 0.52799-0.57321 0.52865-0.95549l0.0011-1.0154c5.29e-4 -0.3824-0.20954-0.72244-0.52503-0.95704-0.31549-0.23461-0.73927-0.3735-1.2041-0.37414-1.0129 0.01-2.0257 4e-3 -3.0386-2e-3zm1.5586 0.3452c0.51989 1e-3 1.0267 4e-3 1.4795 7e-3 0.39466 5.3e-4 0.74868 0.12112 0.9958 0.30489 0.24713 0.18377 0.38381 0.4211 0.38344 0.67593l-0.0011 1.0154c-5.29e-4 0.25475-0.13843 0.49134-0.38602 0.67438-0.2476 0.18304-0.60179 0.30227-0.99632 0.30179-1.0421-2e-3 -2.0628-2e-3 -3.0339-2e-3 -0.39453-3e-5 -0.74844-0.11998-0.9958-0.30334-0.24736-0.18336-0.38488-0.42014-0.38499-0.67489v-1.0154c-4.3e-5 -0.25483 0.13711-0.49196 0.38447-0.67541 0.24736-0.18345 0.60167-0.30331 0.99632-0.30334 0.50574-6e-3 1.0387-7e-3 1.5586-6e-3zm-0.33548 2.574c0.20506-1e-3 0.39779 6e-3 0.61117 9e-3 0.02584 3.3e-4 0.04661-0.0205 0.04724-0.0463 0.01431-0.58786 0.35394-0.96035 0.75048-1.2689 0.0097-8e-3 0.01823-0.0236 0.01872-0.0359 0.0052-0.13264-0.01104-0.25313-3e-3 -0.45152 8.89e-4 -0.0219-0.01476-0.0459-0.03602-0.0511-0.27601-0.0672-1.5832-0.16994-2.0088-9e-3 -0.01536 6e-3 -0.02864 0.0246-0.0297 0.041-0.01006 0.15582-6.26e-4 0.36093 0.0063 0.52924 0.0011 0.0256 0.02267 0.0457 0.04835 0.0452 0.17632-3e-3 0.37704 6e-3 0.5289 2.3e-4 0.02312-8.3e-4 0.04318-0.0208 0.04484-0.044l0.0088-0.12346c0.0017-0.0233 0.02192-0.0432 0.04525-0.0442 0.23561-0.0105 0.64569-0.0156 0.83908 0.0406-0.38543 0.16495-0.89904 0.80033-0.91939 1.3612-9.66e-4 0.0267 0.0211 0.048 0.04777 0.0479z" style="color-rendering:auto;color:#000000;dominant-baseline:auto;fill-opacity:.84706;fill:#3b8040;font-feature-settings:normal;font-variant-alternates:normal;font-variant-caps:normal;font-variant-east-asian:normal;font-variant-ligatures:normal;font-variant-numeric:normal;font-variant-position:normal;font-variation-settings:normal;image-rendering:auto;inline-size:0;isolation:auto;mix-blend-mode:normal;opacity:.989;shape-margin:0;shape-padding:0;shape-rendering:auto;solid-color:#000000;stop-color:#000000;text-decoration-color:#000000;text-decoration-line:none;text-decoration-style:solid;text-indent:0;text-orientation:mixed;text-transform:none;white-space:normal"/>
 </g>
</svg>
